<?xml version="1.0" standalone="no"?>
<!DOCTYPE svg PUBLIC "-//W3C//DTD SVG 20010904//EN"
 "http://www.w3.org/TR/2001/REC-SVG-20010904/DTD/svg10.dtd">
<svg version="1.0" xmlns="http://www.w3.org/2000/svg"
 width="564.000000pt" height="564.000000pt" viewBox="0 0 564.000000 564.000000"
 preserveAspectRatio="xMidYMid meet">

<g transform="translate(0.000000,564.000000) scale(0.100000,-0.100000)"
fill="#000000" stroke="none">
<path d="M0 2820 l0 -2820 2820 0 2820 0 0 2820 0 2820 -2820 0 -2820 0 0
-2820z m2975 245 c76 -132 181 -314 233 -405 53 -91 117 -203 144 -249 26 -46
48 -88 48 -93 0 -5 -10 -8 -22 -6 -16 2 -57 66 -180 278 -87 151 -163 277
-170 279 -18 6 -8 -13 132 -253 71 -124 130 -227 130 -230 0 -4 -9 -6 -19 -6
-25 0 -33 12 -190 285 -73 127 -139 237 -147 245 -32 33 -11 -17 57 -133 167
-286 189 -324 189 -330 0 -4 -9 -7 -19 -7 -25 0 -30 8 -197 297 -76 134 -141
243 -144 243 -3 0 -63 -102 -135 -227 -173 -302 -181 -313 -205 -313 -11 0
-20 3 -20 6 0 3 59 107 130 231 121 209 151 269 116 233 -8 -8 -74 -118 -146
-245 -157 -273 -166 -285 -191 -285 -10 0 -19 2 -19 5 0 3 61 111 135 239 74
128 135 237 135 241 0 26 -38 -33 -178 -275 -122 -210 -164 -276 -181 -278
-11 -2 -21 1 -21 7 0 5 124 223 275 485 152 262 281 487 287 501 9 21 14 23
23 13 7 -7 74 -121 150 -253z m-82 -444 c37 -65 67 -123 67 -128 0 -5 -32 -40
-70 -78 l-70 -70 -73 73 -72 72 26 48 c64 116 114 202 119 202 3 0 35 -54 73
-119z"/>
</g>
</svg>
